<svg xmlns="http://www.w3.org/2000/svg" viewBox="0 0 288 182"><defs><style>.cls-1{fill:#f5f1ea;}.cls-2{fill:#b5a191;}</style></defs><title>BKK3_Logo_Website</title><g id="Artwork"><path class="cls-1" d="M99.66,106.87a12.77,12.77,0,0,1-1.38.08,20.54,20.54,0,0,1-3.83-.45A42,42,0,0,1,93.8,102l.73-.13c.62,1.46,1.14,3.23,2.73,3.88a4.39,4.39,0,0,0,1.62.37,3.32,3.32,0,0,0,3.38-3.31c0-2.63-2.89-3.52-4.82-4.51S94.21,96,94.21,93.81c0-2.84,2.66-4.92,5.37-4.92a13.36,13.36,0,0,1,3,.52,1.79,1.79,0,0,0,.42,0,1.83,1.83,0,0,0,.73-.15,8,8,0,0,1,.21,1.4l.34,2.79-.71.18c-.78-1.9-2-3.88-4.3-3.88a2.93,2.93,0,0,0-3,3c0,1.65,1.59,2.53,2.84,3.21,2.69,1.48,5.52,2.34,5.52,6C104.63,104.71,102.13,106.56,99.66,106.87Z"/><path class="cls-1" d="M110.27,106.4H109.2c-1,0-1.93,0-2.92,0v-.65c2-.18,2.09-.18,2.09-2.29V97.33c0-.08,0-.18-.08-.23-.34-.19-1.36-.63-1.75-.81V96l4-1.56v9.17c0,2,.19,2,2.12,2.16v.65C111.83,106.42,111.05,106.4,110.27,106.4Zm-.94-14a1.33,1.33,0,1,1,1.36-1.33A1.33,1.33,0,0,1,109.33,92.43Z"/><path class="cls-1" d="M121.35,106.45v-.65c.5,0,1.62-.08,2-.5a2.94,2.94,0,0,0,.29-1.51c0-1.19.13-2.37.13-3.57a6.86,6.86,0,0,0-.39-2.73A2.58,2.58,0,0,0,121,96.21a4.35,4.35,0,0,0-2.71,1.07c-.13.1-.13.18-.13.34-.1,2.08,0,4.22,0,6.3,0,1.8.52,1.67,2,1.88v.65H114v-.65c.6,0,1.67,0,1.9-.76a32.7,32.7,0,0,0,.08-3.33V96.84a18.63,18.63,0,0,0-1.77-.78v-.34l4-1.49v2.5c.55-.31,1-.8,1.54-1.14a4.94,4.94,0,0,1,2.81-1.07,3.51,3.51,0,0,1,2.4,1.43,5.55,5.55,0,0,1,1,3.57c0,1.62-.2,3.23-.2,4.85s.73,1.27,2,1.43v.65Z"/><path class="cls-1" d="M137.65,107l-.11,0c0-.75,0-1.51,0-2.26a33.44,33.44,0,0,1-3.31,1.77,3.08,3.08,0,0,1-.68.08,4.7,4.7,0,0,1-2.6-.91,5.45,5.45,0,0,1-2.17-4.41,3.23,3.23,0,0,1,0-.44,6.3,6.3,0,0,1,4.59-5.42,7.72,7.72,0,0,1,2.29-.42c.63,0,1.25,0,1.88,0-.08-1.71,0-3.46,0-5.18v-.52c-.55-.24-1-.57-1.62-.78v-.24c1.28-.49,2.5-1.14,3.78-1.66v.26c0,5.73-.15,11.49-.15,17.22a2.28,2.28,0,0,0,.1.83c.13.24,1.56.24,1.85.26v.55C140.17,106.16,139,106.69,137.65,107Zm-.19-9.64a4.2,4.2,0,0,0-2.86-1.59c-2.53,0-3.7,2.53-3.7,4.74A4.28,4.28,0,0,0,135,105a5.07,5.07,0,0,0,2.5-.94c0-1.17,0-2.32,0-3.49S137.49,98.43,137.46,97.36Z"/><path class="cls-1" d="M150.06,106.45v-.65c.44,0,1.51,0,1.74-.47a16.05,16.05,0,0,0,.34-3.8c0-2.14.24-5.24-2.76-5.24a5.61,5.61,0,0,0-2.66,1V104c0,2,.42,1.59,2,1.8v.65h-5.94v-.65c.52,0,1.67,0,1.82-.68a5.5,5.5,0,0,0,0-1.35c0-4.64,0-9.25,0-13.89v-.52a13.13,13.13,0,0,0-1.64-.81v-.18l3.8-1.69v.18c0,3-.1,6-.1,9v.86c1.41-1,2.14-2,4-2a3.39,3.39,0,0,1,2.19,1c1.33,1.33,1.3,2.92,1.3,4.69,0,1.36-.16,2.69-.16,4,0,1.51.73,1.22,1.91,1.35v.65Z"/><path class="cls-1" d="M167.55,104.81a6.81,6.81,0,0,1-4.48,2,6.1,6.1,0,0,1-6.1-6.15c0-3.07,3.16-5.81,6.15-5.81a6.92,6.92,0,0,1,4,1.46,5.69,5.69,0,0,1,2.16,4.4A6.1,6.1,0,0,1,167.55,104.81Zm-1.8-7.69a3.27,3.27,0,0,0-2.63-1.56,2.89,2.89,0,0,0-1.61.5,5.22,5.22,0,0,0-2.06,4.58c0,2.22,1.17,5.42,3.85,5.42,2.43,0,3.47-3.23,3.47-5.21A6.73,6.73,0,0,0,165.75,97.12Z"/><path class="cls-1" d="M178.47,97.57a6.23,6.23,0,0,0-2.16-.89,2.1,2.1,0,0,0-1.88,1.95v5.58a1.76,1.76,0,0,0,.24,1c.34.53,1.72.58,2.29.63v.65h-6.7v-.65c1,0,2,0,2-1.33V96.94a14.64,14.64,0,0,0-1.77-.78v-.34c1.27-.49,2.63-.94,3.91-1.43v2.76l1-1.15a3.09,3.09,0,0,1,2.22-1.35,2.7,2.7,0,0,1,1.77,1.14C179.12,96.39,178.81,97,178.47,97.57Z"/><path class="cls-1" d="M188,106.45v-.65c.5,0,1.62-.08,2-.5a2.94,2.94,0,0,0,.28-1.51c.06-1.19.13-2.37.13-3.57a6.86,6.86,0,0,0-.39-2.73,2.58,2.58,0,0,0-2.32-1.28,4.35,4.35,0,0,0-2.71,1.07c-.13.1-.13.18-.13.34-.1,2.08,0,4.22,0,6.3,0,1.8.53,1.67,2,1.88v.65h-6.2v-.65c.59,0,1.66,0,1.9-.76.1-.36.08-2.84.08-3.33V96.84c-.58-.32-1.18-.52-1.78-.78v-.34l4-1.49v2.5c.55-.31,1-.8,1.54-1.14a4.94,4.94,0,0,1,2.82-1.07A3.51,3.51,0,0,1,191.53,96a5.56,5.56,0,0,1,1,3.57c0,1.62-.21,3.23-.21,4.85s.73,1.27,2,1.43v.65Z"/><path class="cls-1" d="M65.38,134.8c-1.25,0-2.5,0-3.75,0l0-.75c.37,0,1.67.05,1.67-.55s-.65-1-.94-1.36c-1.25-1.38-2.5-2.71-3.75-4.09-.29-.31-1-1.17-1.38-1.27a.63.63,0,0,0-.23,0,5.62,5.62,0,0,0-.71,0v5.23a2.3,2.3,0,0,0,.26,1.33c.45.6,1.54.65,2.24.71v.75c-1.43,0-2.89,0-4.32,0-1,0-2.11,0-3.15,0v-.75c.62-.08,1.74,0,2.16-.55a5.6,5.6,0,0,0,.26-2.4c0-2.14.05-4.27.05-6.41,0-1,.13-5.16-.34-5.73s-1.67-.42-2.26-.5v-.75h7.63v.75c-.65.06-1.56-.1-2.11.32s-.37,1.82-.39,2.42c0,.36,0,.81,0,1.17,0,1.23,0,2.45,0,3.68h.18c1.25,0,2.08-1.18,2.87-2S63,120.29,63,119.3c0-.76-1.35-.71-1.87-.79v-.75h6.72v.75c-2.32.13-2.27.32-3.86,1.85-.81.79-1.56,1.7-2.34,2.5s-1.49,1.7-2.27,2.53c.89.86,1.72,1.83,2.55,2.74l3.44,3.67a16.17,16.17,0,0,0,2,1.9,3,3,0,0,0,1.35.4v.75C67.59,134.8,66.5,134.8,65.38,134.8Z"/><path class="cls-1" d="M74.8,135.19a5.48,5.48,0,0,1-5.23-5.52,7,7,0,0,1,1.87-5A5.26,5.26,0,0,1,75,123.2a4.26,4.26,0,0,1,4.38,4c-2.56.11-5.08.21-7.64.21a4.09,4.09,0,0,0,0,.78v.39a4.55,4.55,0,0,0,4.4,4.77,4.71,4.71,0,0,0,3.13-1.69l.39.34A6.07,6.07,0,0,1,74.8,135.19ZM76.6,125a2.2,2.2,0,0,0-2.11-1.17c-1.54,0-2.42,1.66-2.66,3a29.69,29.69,0,0,0,5.16-.42A2.92,2.92,0,0,0,76.6,125Z"/><path class="cls-1" d="M95.19,134.85v-.65c.5,0,1.59-.08,1.93-.5a2.94,2.94,0,0,0,.29-1.51c0-1.14.15-2.29.15-3.44a7.44,7.44,0,0,0-.39-2.73,2.58,2.58,0,0,0-2.32-1.28,4.67,4.67,0,0,0-2.71,1,5.16,5.16,0,0,1,.06,1c0,2.06,0,4.12,0,6.18a1.63,1.63,0,0,0,.16.78c.23.47,1.35.49,1.79.52v.65H88v-.65c.47,0,1.7,0,1.93-.55a17.23,17.23,0,0,0,.21-3.36c0-.81,0-1.61,0-2.42a7.19,7.19,0,0,0-.21-2,2.57,2.57,0,0,0-2.32-1.3,4.74,4.74,0,0,0-2.74,1c-.08.05-.13.08-.13.2v6.73a2.54,2.54,0,0,0,.16,1.09c.31.55,1.38.52,1.93.57v.63H80.6v-.65c1.59-.1,1.93,0,1.93-1.72,0-2.42,0-4.82,0-7.24a12.11,12.11,0,0,0-1.77-.79v-.33l4-1.49v2.5c.55-.31,1-.75,1.54-1.09a5,5,0,0,1,2.84-1.12,3.3,3.3,0,0,1,2.42,1.43,4.84,4.84,0,0,1,.5,1c1.4-1,2.42-2.32,4.32-2.32a3.54,3.54,0,0,1,2.45,1.46,5.56,5.56,0,0,1,1,3.57c0,1.56-.21,3.15-.21,4.72s.73,1.27,2,1.43v.65Z"/><path class="cls-1" d="M107.73,134.75l-.68,0a4.37,4.37,0,0,1-1-.05c0,.91,0,1.82,0,2.74,0,.65,0,1.32,0,1.95.11,1.25,1.36.94,2.22,1.09v.66h-6.36v-.63c.94-.08,2-.1,2-1.33v-14a10.39,10.39,0,0,0-1.77-.79v-.33c1.28-.53,2.53-1.05,3.83-1.49v.47c0,.57,0,1.09,0,1.67,1-.63,2.34-1.64,3.59-1.64a5.33,5.33,0,0,1,3.91,2,6.21,6.21,0,0,1,1.2,3.47C114.71,132.22,111.17,134.62,107.73,134.75Zm2-9.8a4,4,0,0,0-1.43-.34,4,4,0,0,0-2.32.83v6.75a3.45,3.45,0,0,0,3,1.83,2.79,2.79,0,0,0,1.36-.39,5,5,0,0,0,2.13-4.43A4.34,4.34,0,0,0,109.76,125Z"/><path class="cls-1" d="M119.6,134.8h-1.06c-1,0-1.93,0-2.92,0v-.65c2-.18,2.08-.18,2.08-2.29v-6.18c0-.08,0-.18-.08-.23-.34-.19-1.35-.63-1.74-.81v-.26l4-1.57V132c0,2,.18,2,2.11,2.16v.65C121.17,134.82,120.39,134.8,119.6,134.8Zm-.93-14A1.33,1.33,0,1,1,120,119.5,1.34,1.34,0,0,1,118.67,120.83Z"/><path class="cls-1" d="M130.68,134.85v-.65c.5,0,1.62-.08,2-.5a2.94,2.94,0,0,0,.28-1.51c.06-1.2.14-2.37.14-3.57a6.87,6.87,0,0,0-.4-2.73,2.56,2.56,0,0,0-2.31-1.28,4.32,4.32,0,0,0-2.71,1.07c-.13.1-.13.18-.13.34-.11,2.08,0,4.22,0,6.3,0,1.8.52,1.67,2,1.88v.65h-6.2v-.65c.6,0,1.66,0,1.9-.76.1-.36.08-2.84.08-3.33v-4.87c-.58-.32-1.18-.53-1.78-.79v-.33l4-1.49v2.5c.54-.31,1-.81,1.53-1.15a5,5,0,0,1,2.82-1.06,3.51,3.51,0,0,1,2.39,1.43,5.56,5.56,0,0,1,1,3.57c0,1.61-.21,3.23-.21,4.85s.73,1.27,2,1.43v.65Z"/><path class="cls-1" d="M144.88,134.17a4.77,4.77,0,0,1-3,1,12.1,12.1,0,0,1-2.87-.39c-.13-1-.29-2-.42-2.92l.71-.16c.62,1.18,1.09,2.84,2.71,2.84a2,2,0,0,0,2.11-1.82c0-3.18-5.4-2.76-5.4-6.41,0-2,1.93-3.18,3.73-3.18a10.9,10.9,0,0,1,2.21.31l.19,0a1.53,1.53,0,0,0,.59-.16c.19,1,.34,2,.45,3l-.65.15c-.52-1.19-1.38-2.65-2.87-2.65a1.71,1.71,0,0,0-1.9,1.82c0,1.1.68,1.46,1.48,2,1.67,1.12,4,1.8,4,4.25A3.82,3.82,0,0,1,144.88,134.17Z"/><path class="cls-1" d="M147.3,134.85v-.65c.53,0,1.57.1,1.72-.55a8.26,8.26,0,0,0,.13-1.8c.06-3.46.08-6.87.08-10.34,0-1.25,0-2.47,0-3.73a15.48,15.48,0,0,0-1.62-.83v-.18c1.25-.58,2.53-1.12,3.81-1.7v.27c0,1.53-.06,3-.08,4.58-.06,3.62-.11,7.27-.11,10.89v1.72c0,1.67.45,1.64,1.88,1.72v.6Zm7,0v-.6c.39,0,1.43,0,1.43-.55,0-.41-2.91-3.41-3.43-3.9-.34-.32-.68-.6-1-.92a16.3,16.3,0,0,0,3-2.37c.28-.28,1.32-1.33,1.32-1.72,0-.54-1.06-.62-1.43-.65v-.65h5.4v.65a5,5,0,0,0-3,1.28c-1.09.86-2.13,1.8-3.2,2.68,1.33,1.43,2.63,2.87,4,4.25.5.49,1,1.07,1.56,1.54a1.83,1.83,0,0,0,1.2.31v.65Z"/><path class="cls-1" d="M165.33,134.8h-1.07c-1,0-1.92,0-2.91,0v-.65c2-.18,2.08-.18,2.08-2.29v-6.18c0-.08,0-.18-.08-.23-.34-.19-1.35-.63-1.74-.81v-.26l4-1.57V132c0,2,.18,2,2.11,2.16v.65C166.9,134.82,166.11,134.8,165.33,134.8Zm-.94-14a1.33,1.33,0,1,1,0-2.66,1.33,1.33,0,1,1,0,2.66Z"/><path class="cls-1" d="M187.59,134.85v-.78c.83,0,2,.08,2.58-.6.36-.42.36-2.55.36-3.15,0-1.31,0-2.58,0-3.89h-9.67c0,1.8,0,3.57,0,5.37,0,2.3.93,2.22,2.86,2.27v.78h-7.94l0-.78c.7,0,1.77,0,2.21-.68a5.87,5.87,0,0,0,.32-2.55c0-3.39.08-6.86.08-10.24,0-2.09-.86-2-2.58-2.09v-.75h7.81v.75a4.64,4.64,0,0,0-2.06.34c-.6.37-.57.89-.57,1.51,0,1.7,0,3.42-.08,5.11h9.67c0-1.43.05-2.84.05-4.27,0-2.61-.36-2.61-2.81-2.69v-.75h7.89v.75c-.68,0-1.9-.05-2.32.6a10.32,10.32,0,0,0-.21,3c0,3-.07,6.18-.07,9.23a5.37,5.37,0,0,0,.28,2.24c.52.62,1.62.44,2.35.52v.78Z"/><path class="cls-1" d="M207.46,133.21a6.83,6.83,0,0,1-4.48,2,6.1,6.1,0,0,1-6.1-6.15c0-3.07,3.15-5.81,6.15-5.81a7,7,0,0,1,4,1.46,5.69,5.69,0,0,1,2.16,4.4A6.1,6.1,0,0,1,207.46,133.21Zm-1.8-7.69A3.28,3.28,0,0,0,203,124a3,3,0,0,0-1.62.49,5.27,5.27,0,0,0-2.06,4.59c0,2.21,1.18,5.42,3.86,5.42,2.42,0,3.46-3.23,3.46-5.21A6.72,6.72,0,0,0,205.66,125.52Z"/><path class="cls-1" d="M217.8,124.71h-3.64v6.73c0,1.27.41,2.37,1.87,2.37a3,3,0,0,0,2-.73l.26.42a5.13,5.13,0,0,1-3.67,1.69c-1.9,0-2.71-1.17-2.71-2.94,0-2.48.1-5.06.13-7.54h-1.56l-.06-.18c1.28-1.12,2.53-2.24,3.83-3.33v2.29c1.12,0,2.22,0,3.34,0h.75Z"/><path class="cls-1" d="M224.51,135.19a5.48,5.48,0,0,1-5.24-5.52,7,7,0,0,1,1.87-5,5.28,5.28,0,0,1,3.52-1.51,4.25,4.25,0,0,1,4.38,4c-2.55.11-5.08.21-7.64.21a4.09,4.09,0,0,0-.05.78v.39a4.56,4.56,0,0,0,4.41,4.77,4.69,4.69,0,0,0,3.12-1.69l.39.34A6.07,6.07,0,0,1,224.51,135.19ZM226.3,125a2.2,2.2,0,0,0-2.11-1.17c-1.53,0-2.42,1.66-2.65,3a29.66,29.66,0,0,0,5.15-.42A2.92,2.92,0,0,0,226.3,125Z"/><path class="cls-1" d="M230.06,134.85v-.65c.55,0,1.59,0,1.87-.57a7,7,0,0,0,.16-2c0-4,0-8,0-12,0-.65,0-1.3,0-2-.52-.24-1-.52-1.56-.76v-.18c1.27-.52,2.53-1.12,3.8-1.7v.27c0,5.31-.15,10.65-.15,16a11.41,11.41,0,0,0,.15,2.29c.29.62,1.57.57,2.17.6v.65Z"/><path class="cls-1" d="M114.08,164.16a6.18,6.18,0,0,1,1.65.12,1.86,1.86,0,0,1,1.35,1.75,1.51,1.51,0,0,1-1.29,1.58,2.09,2.09,0,0,1,.27,4,4.27,4.27,0,0,1-1.73.2h-3v-7.65Zm-1.31,3h1.48c.91,0,1.35-.27,1.35-.84s-.55-.95-1.37-.95h-1.46Zm0,3.37h1.86c.84,0,1.33-.3,1.33-1.05s-.49-1.17-1.64-1.17h-1.55Z"/><path class="cls-1" d="M119.61,171.81l3.26-7.66h1.36l3.23,7.66h-1.64l-.67-1.74h-3.27l-.67,1.74Zm2.75-3h2.31l-1.16-2.95Z"/><path class="cls-1" d="M131.67,166.12v5.69h-1.43v-7.66h1.86l3.48,5.5v-5.5H137v7.66h-1.77Z"/><path class="cls-1" d="M147.18,171.81H146v-.63a2.75,2.75,0,0,1-2.12.82c-2.39,0-3.64-1.87-3.64-3.95a3.78,3.78,0,0,1,3.72-4.1,3.36,3.36,0,0,1,3.27,2.24l-1.38.56a1.93,1.93,0,0,0-1.87-1.49c-1.45,0-2.17,1.23-2.17,2.75,0,1.69.93,2.68,2.19,2.68a1.82,1.82,0,0,0,1.9-1.8h-1.92v-1.28h3.25Z"/><path class="cls-1" d="M150.73,164.15h1.43v3.58l3.22-3.58h1.73l-3,3.25,2.8,4.41h-1.72v0l-2.06-3.32-1,1.12v2.22h-1.43Z"/><path class="cls-1" d="M163.06,172a4,4,0,0,1-4.1-4,4.11,4.11,0,0,1,8.22,0A3.93,3.93,0,0,1,163.06,172Zm2.58-4a2.57,2.57,0,1,0-2.57,2.72A2.55,2.55,0,0,0,165.64,168Z"/><path class="cls-1" d="M170.28,164.15h1.43v3.58l3.21-3.58h1.74l-2.95,3.25,2.8,4.41h-1.72v0l-2.05-3.32-1,1.12v2.22h-1.43Z"/><rect class="cls-1" x="72.75" y="151.38" width="141.64" height="1.09"/><path class="cls-2" d="M117,34.81a9.8,9.8,0,0,0,3.94,1.58,9.1,9.1,0,0,0,4.3-.25c-2.8-2.71-5.76-5.37-8.64-8.06,3.18,2.35,6.46,4.92,9.51,7,.24-.76.09-2.32-.8-4.35a10.18,10.18,0,0,0-3-3.84c-2.09-1.64-6.14-2.91-8-.61C112.14,28.94,114.48,33.06,117,34.81Z"/><path class="cls-2" d="M128.23,48.93c1.78-.5,4.91-2.42,5.17-4.07A20.21,20.21,0,0,0,124.56,47c2.14-2.08,5.46-2.83,8.89-3.06a8.39,8.39,0,0,0-6.43-1c-2.34.54-5.29,2.6-4.61,4.7C123,49.45,126.24,49.51,128.23,48.93Z"/><path class="cls-2" d="M123.83,50.26a17,17,0,0,0,3.51,6.13,11.68,11.68,0,0,1-4.11-5.75,6.27,6.27,0,0,0,.6,4.77c.88,1.61,3,3.4,4.42,2.47,1.21-.83.62-3.23-.22-4.58S125.19,50.11,123.83,50.26Z"/><path class="cls-2" d="M140.19,51.13a23.17,23.17,0,0,0-8.23,0,14.33,14.33,0,0,1,8.17-.81,7.33,7.33,0,0,0-5.08-2.16c-2.16-.06-5.19,1-5.12,3,.09,1.71,2.89,2.55,4.73,2.52S139.52,52.64,140.19,51.13Z"/><path class="cls-2" d="M118.16,41.67a5.7,5.7,0,0,0,1.69-2.93,23,23,0,0,0-8.93,3.53,13.83,13.83,0,0,1,8.84-4.41,8.45,8.45,0,0,0-3.46-1,7.8,7.8,0,0,0-3.32.55c-2.38.87-5.18,3.49-4.22,5.78.81,2,4.19,1.69,6.18.83A9.75,9.75,0,0,0,118.16,41.67Z"/><path class="cls-2" d="M150.21,36c.51-2.59-.21-6.79-3.1-7.43-3.36-.72-6,3.22-6.37,6.27a9.72,9.72,0,0,0,2.34,7.7,96.61,96.61,0,0,1,3.48-11.11,109.63,109.63,0,0,1-2.25,11.51C147.19,42.41,149.67,38.76,150.21,36Z"/><path class="cls-2" d="M158.27,42a7.21,7.21,0,0,0,5.48,1.67c2.1-.2,4.93-1.65,4.59-3.57-.31-1.63-3.12-2.1-4.93-1.81-1.51.22-4.14,1.16-5.22,3,3.2,0,6,.06,8.18-.84A15.08,15.08,0,0,1,158.27,42Z"/><path class="cls-2" d="M170.34,40.93a23.1,23.1,0,0,0,6.11-4.49,13.39,13.39,0,0,1-5.61,5.07,6.6,6.6,0,0,0,5-1.19c1.64-1.14,3.28-3.63,2.1-5-1-1.22-3.51-.3-4.85.74S170,39.52,170.34,40.93Z"/><path class="cls-2" d="M177.88,46.33a7.43,7.43,0,0,0-6-3.09,2.77,2.77,0,0,0-2,.72,11.79,11.79,0,0,1,7.31,4.39,15.94,15.94,0,0,0-7.73-3.66,7.79,7.79,0,0,0,3.36,4.78c1.77,1.08,4.78,1.45,5.56-.54A2.72,2.72,0,0,0,177.88,46.33Z"/><path class="cls-2" d="M163.73,26.41c1.11-2.76,1.94-5.86,1.7-8.3.83,2.51.25,5.64-1,8.68a7.7,7.7,0,0,0,3.47-5c.44-2.19-.11-5.48-2.15-5.74s-3.44,3.18-3.5,5.38C162.24,23.22,162.66,25.69,163.73,26.41Z"/><path class="cls-2" d="M160.46,18.4a10,10,0,0,0-1.3-5.72,8.41,8.41,0,0,1,1.94,5.73,5.73,5.73,0,0,0,1-2.06,4.89,4.89,0,0,0,0-2.12c-.32-1.51-1.77-3.4-3.38-3-1.38.41-1.57,2.52-1.24,3.79S159.2,18.26,160.46,18.4Z"/><path class="cls-2" d="M124.55,26.12A18.44,18.44,0,0,0,122.34,19a10.82,10.82,0,0,1,2.89,7.09,5.89,5.89,0,0,0,1.17-5.3c-.53-1.88-2.55-4.18-4.67-3.52-1.84.58-2,3.21-1.4,4.81S122.78,26,124.55,26.12Z"/><path class="cls-2" d="M127.13,18.71a12.46,12.46,0,0,0,.53-5.79,7.7,7.7,0,0,1,0,5.72A4.35,4.35,0,0,0,130,15.46c.22-1.47-.48-3.73-2.16-3.93-1.47-.17-2.39,1.62-2.5,2.91S125.83,18,127.13,18.71Z"/><path class="cls-2" d="M157.08,49.72a8.12,8.12,0,0,0-5.82-1.35,5.21,5.21,0,0,0-3.08,1.33,13.78,13.78,0,0,1,9.14,2.85,17.67,17.67,0,0,0-9.15-1.84c.56,1.82,2.54,3.38,4.63,4a7,7,0,0,0,3.53.16C159.26,54.21,159.42,51.47,157.08,49.72Z"/><path class="cls-2" d="M146.34,21.06c-2.08-.79-4.82.9-5.83,2.4a4.4,4.4,0,0,0-.77,2.2,4.2,4.2,0,0,0,.67,2.33c1-2.29,2.55-4.59,4.87-5.56a12.73,12.73,0,0,0-3.95,5.69c1.82.08,4.4-1.75,5.3-2.91S148.15,21.74,146.34,21.06Z"/><path class="cls-2" d="M164.63,46l-.24,0,.33.33a12.53,12.53,0,0,1,3.26,4.3,7.15,7.15,0,0,1,.42,2.67,8.79,8.79,0,0,1-.27,2.23,17,17,0,0,0-1.73-5.66c-1.24-2.47-3.71-4.42-7.15-5.65a14.72,14.72,0,0,0-4.82-.84,9.75,9.75,0,0,0-2.91.4c1-.62,2.08-1.3,3.09-2l1.9-1.23c6.23-3.91,12.66-8,16.76-14.45A22.94,22.94,0,0,1,166.9,35l-.17.15H167c4.16-.17,8.7-3.08,8.92-8.16,0-3.94-4-4.72-6.69-2.48s-3,6.08-5.09,8.72c-1.18,1.46-2.9,2.22-4.4,3.27.35-.25.64-1.49.8-1.9,2.93-7.4-1.17-18.39-7.72-22.73A10.54,10.54,0,0,0,147.12,10H147a4.12,4.12,0,0,0-3.47,1.46c-1.79,2.42.27,5.62,2,7.06a9.46,9.46,0,0,0,6.13,1.95,16.44,16.44,0,0,0,3.53-.41l.12,0-.07-.1c-2.15-3.31-5.13-5.18-8.52-7,4.61,1.72,7.9,4.12,10,7.31,1.94,2.95,3.66,7.78,2.43,12.07.29-3.3-.15-5.65-1.33-7.17a4.2,4.2,0,0,0-3.11-1.81,2.9,2.9,0,0,0-2.58,1.93c-2.28,5.13,1.62,9.47,2.87,10.68l.06,0,0,0c1.89-1.84,1.53-5.87.21-9.07a11.68,11.68,0,0,1,1.87,6.48,8.4,8.4,0,0,1-2.09,5.25,28.07,28.07,0,0,1-2.91,2.86A30.58,30.58,0,0,1,149,43.93l-2.73,1.77a13.39,13.39,0,0,1,.69,1.23l0,.08a12.64,12.64,0,0,1,6.81-2c2,0,5.44.32,6.75,2.11.89,1.22.66,2.77.83,4.18.39,3.25,2.67,7.44,6.42,7.44a3.7,3.7,0,0,0,3.42-3.08,7.42,7.42,0,0,0-1.61-7A8.71,8.71,0,0,0,164.63,46Z"/><path class="cls-2" d="M157.26,68.41l-1.13-1.35h-.08c-4.46.18-8.62-1.79-10.71-4.89l0,0a15.78,15.78,0,0,0,1.89-5.66,14.2,14.2,0,0,0-.63-5.79,21.3,21.3,0,0,0-1.17-3A17.37,17.37,0,0,0,138,40.27c-.64-.35-1.31-.66-1.94-1a9.25,9.25,0,0,1-1.33-1,5.6,5.6,0,0,1-1.13-1.39,9,9,0,0,1-.89-5.38c.05-.45.11-.9.19-1.35a17.13,17.13,0,0,1,.85-2.65c-.83,4.46-.69,7.25,1,9.57l.12.15.13-.14c3.66-3.75,4.23-7.45,3.32-10a4.3,4.3,0,0,0-3.89-3.19,3.64,3.64,0,0,0-1.47.32c-2.76,1.23-3.19,4.74-3,7.51a17.92,17.92,0,0,1,3.83-14.34,24.83,24.83,0,0,1,3.11-3.21,26.13,26.13,0,0,0-4.25,6.59l-.11.24.27,0a10.41,10.41,0,0,0,6.85-3.51,6.23,6.23,0,0,0,1.64-4.64,2.69,2.69,0,0,0-2-2.59,2.92,2.92,0,0,0-1.66-.06c-3.83.95-6.32,4.46-7.74,7.93a26.3,26.3,0,0,0-2.06,10.53,17,17,0,0,0,.91,5,17.44,17.44,0,0,0,1.95,4.11c.28.51.57,1,.7,1a18.45,18.45,0,0,0-9.77,2.91c-4.1,2.57-8.68,6.86-8.69,12.12,0,2.44,1.41,5.51,4.25,5.47h.1a4.28,4.28,0,0,0,3.88-3.33A11.7,11.7,0,0,0,120,47.12l-.11-.16-.14.13A13.11,13.11,0,0,0,117.31,55a5.64,5.64,0,0,1-.55-2.52c.06-3.69,2.51-6.5,5.3-8.63a21.67,21.67,0,0,1,2.35-1.55,15.25,15.25,0,0,1,2.25-1,14.9,14.9,0,0,1,3.92-.78,14.11,14.11,0,0,1,12.94,7.08l.2.33a10.94,10.94,0,0,0-2.36,4.59,11.13,11.13,0,0,0,.1,5.35c.15.54.61,1.86.83,2.49a11.05,11.05,0,0,0,1-1.9,14.49,14.49,0,0,1-.55-2.68,8.62,8.62,0,0,1,.46-3.63,11.14,11.14,0,0,1,1.28-2.53,12,12,0,0,1,.75,7.85,12.76,12.76,0,0,1-2.55,5.11,12.44,12.44,0,0,1-3.67,3,13.26,13.26,0,0,1-4.37,1.5,10.62,10.62,0,0,1-2.52,0H132l-1.41,1.45-.59.65a13.66,13.66,0,0,0,6.1-.06,13.85,13.85,0,0,0,4.46-1.8,15.27,15.27,0,0,0,3.54-3.17c.11.15,1,1.12,1.22,1.31A13.9,13.9,0,0,0,157,69.29l.85-.14Z"/></g></svg>